<?xml version="1.0" encoding="utf-8"?>
<!-- Generator: Adobe Illustrator 22.0.1, SVG Export Plug-In . SVG Version: 6.00 Build 0)  -->
<svg version="1.1" id="Layer_1" xmlns="http://www.w3.org/2000/svg" xmlns:xlink="http://www.w3.org/1999/xlink" x="0px" y="0px"
	 viewBox="0 0 633.299 37.155" style="enable-background:new 0 0 633.299 37.155;" xml:space="preserve">
<g>
	<path d="M0,0h37.587v6.48H8.641v9.793h15.625v6.769H8.641v14.113H0V0z"/>
	<path d="M48.311,0h31.827c5.688,0,8.353,2.017,8.353,7.201v8.713c0,5.184-2.664,7.2-8.353,7.2h-4.896l17.138,14.041H79.993
		L65.017,23.114h-8.209v14.041h-8.497V0z M56.808,6.409v10.368h19.441c2.664,0,3.889-0.504,3.889-2.952V9.361
		c0-2.448-1.225-2.952-3.889-2.952H56.808z"/>
	<path d="M117.279,0h8.353l21.313,37.155h-9.721l-4.464-8.137h-23.546l-4.32,8.137h-8.642L117.279,0z M129.16,22.322l-7.993-15.121
		l-8.28,15.121H129.16z"/>
	<path d="M158.821,0h5.904l26.139,21.891c1.512,1.224,2.952,2.52,4.248,4.032c-0.216-3.097-0.359-5.257-0.359-6.409V0h7.776v37.155
		h-5.904l-27.291-22.97c-1.08-0.937-2.088-1.872-3.096-3.024c0.288,2.881,0.36,4.824,0.36,5.904v20.09h-7.777V0z"/>
	<path d="M221.461,0h8.713v15.481L250.768,0h12.529L238.67,17.498l27.65,19.657h-13.896l-22.25-16.345v16.345h-8.713V0z"/>
	<path d="M278.628,0h38.02v6.337h-29.379v8.28h17.138v6.337h-17.138v9.217h29.738v6.984h-38.379V0z"/>
	<path d="M332.915,0h5.904l26.139,21.891c1.512,1.224,2.952,2.52,4.248,4.032c-0.216-3.097-0.359-5.257-0.359-6.409V0h7.776v37.155
		h-5.904l-27.291-22.97c-1.08-0.937-2.088-1.872-3.096-3.024c0.288,2.881,0.36,4.824,0.36,5.904v20.09h-7.777V0z"/>
	<path d="M403.403,6.48v7.993h23.186c6.985,0,9.289,1.8,9.289,8.785v5.112c0,6.984-2.304,8.784-9.289,8.784h-22.97
		c-6.984,0-9.289-1.8-9.289-8.784v-1.009l7.633-1.584v4.393h26.282v-8.497H405.06c-6.984,0-9.217-1.8-9.217-8.784V8.785
		c0-6.984,2.232-8.785,9.217-8.785h21.098c6.625,0,9.217,1.729,9.217,8.137v0.792l-7.633,1.801V6.48H403.403z"/>
	<path d="M453.802,0h8.713v15.481L483.108,0h12.529l-24.627,17.498l27.65,19.657h-13.896l-22.25-16.345v16.345h-8.713V0z"/>
	<path d="M510.969,0h8.641v37.155h-8.641V0z"/>
	<path d="M538.616,0h38.02v6.337h-29.379v8.28h17.138v6.337h-17.138v9.217h29.738v6.984h-38.379V0z"/>
	<path d="M600.824,6.48v7.993h23.186c6.985,0,9.289,1.8,9.289,8.785v5.112c0,6.984-2.304,8.784-9.289,8.784h-22.97
		c-6.984,0-9.289-1.8-9.289-8.784v-1.009l7.633-1.584v4.393h26.282v-8.497H602.48c-6.984,0-9.217-1.8-9.217-8.784V8.785
		c0-6.984,2.232-8.785,9.217-8.785h21.098c6.625,0,9.217,1.729,9.217,8.137v0.792l-7.633,1.801V6.48H600.824z"/>
</g>
</svg>
