<?xml version="1.0" encoding="utf-8"?>
<!-- Generator: Adobe Illustrator 22.0.1, SVG Export Plug-In . SVG Version: 6.00 Build 0)  -->
<svg version="1.1" id="Layer_1" xmlns="http://www.w3.org/2000/svg" xmlns:xlink="http://www.w3.org/1999/xlink" x="0px" y="0px"
	 viewBox="0 0 1704.464 100" style="enable-background:new 0 0 1704.464 100;" xml:space="preserve">
<style type="text/css">
	.st0{fill:#FFFFFF;}
</style>
<g>
	<path class="st0" d="M-0.311-0.214h102v17h-78l-1,27h43v18h-43v38h-23V-0.214z"/>
	<path class="st0" d="M129.689-0.214h85.549c15.29,0,22.451,5.427,22.451,19.381v23.132c0,14.029-7.147,19.486-22.409,19.486
		h-13.137l45.978,38h-33.229l-40.18-38h-22.024v38h-23V-0.214z M152.689,16.786v28h52.499c7.194,0,10.501-1.361,10.501-7.973V24.758
		c0-6.612-3.307-7.972-10.501-7.972H152.689z"/>
	<path class="st0" d="M315.646-0.214h22.48l57.363,100h-25.962l-12.069-22h-63.663l-11.681,22h-23.058L315.646-0.214z
		 M347.622,59.786l-21.513-40.697l-22.285,40.697H347.622z"/>
	<path class="st0" d="M427.689-0.214h14.912l70.587,58.916c4.082,3.293,7.972,6.781,11.472,10.853
		c-0.583-8.334-0.971-14.148-0.971-17.25V-0.214h21v100h-14.925l-73.69-61.821c-2.916-2.521-5.638-5.039-8.359-8.14
		c0.778,7.753,0.973,12.984,0.973,15.891v54.07h-21V-0.214z"/>
	<path class="st0" d="M596.689-0.214h23v41.667l54.363-41.667h33.074L642.117,46.88l72.991,52.906h-36.684l-58.735-43.99v43.99h-23
		V-0.214z"/>
	<path class="st0" d="M749.689-0.214h103v17h-79v23h46v17h-47v25h80v18h-103V-0.214z"/>
	<path class="st0" d="M895.689-0.214h15.912l70.587,58.916c4.082,3.293,7.972,6.781,11.472,10.853
		c-0.583-8.334-0.971-14.148-0.971-17.25V-0.214h21v100h-15.924l-73.69-61.821c-2.916-2.521-5.638-5.039-8.359-8.14
		c0.778,7.753,0.973,12.984,0.973,15.891v54.07h-21V-0.214z"/>
	<path class="st0" d="M1085.689,17.786v21h61.999c13.807,0,25.001,11.193,25.001,25.001v10.999
		c0,13.808-11.193,25.001-25.001,25.001h-63.357c-13.057,0-23.642-10.585-23.642-23.642v-2.715l21-4.263v11.62h71v-23h-62.194
		c-13.7,0-24.806-11.106-24.806-24.806v-8.388c0-13.7,11.106-24.806,24.806-24.806h55.836c18.227,0,25.358,4.652,25.358,21.899
		v2.132l-21,4.847V17.786H1085.689z"/>
	<path class="st0" d="M1221.689-0.214h23v41.667l54.363-41.667h33.074l-65.009,47.094l72.99,52.906h-36.683l-58.735-43.99v43.99h-23
		V-0.214z"/>
	<path class="st0" d="M1375.689-0.214h23v100h-23V-0.214z"/>
	<path class="st0" d="M1449.689-0.214h102v17h-79v23h46v17h-46v25h80v18h-103V-0.214z"/>
	<path class="st0" d="M1617.689,17.786v21h61.999c13.807,0,25.001,11.193,25.001,25.001v12.357
		c0,13.057-10.585,23.642-23.642,23.642h-64.716c-13.057,0-23.642-10.585-23.642-23.642v-2.715l21-4.263v11.62h70v-23h-62.194
		c-13.7,0-24.806-11.106-24.806-24.806V23.43c0-13.059,10.586-23.645,23.645-23.645h57.997c18.227,0,25.358,4.652,25.358,21.899
		v2.132l-21,4.847V17.786H1617.689z"/>
</g>
</svg>
